<svg width="15" height="17" viewBox="0 0 15 17" fill="none" xmlns="http://www.w3.org/2000/svg">
<path d="M12.2788 2.4854C11.4465 1.66897 10.0957 1.66897 9.26334 2.4854L2.98687 8.63953C1.55112 10.0476 1.55112 12.3287 2.98687 13.7368C4.42295 15.1449 6.74934 15.1449 8.18542 13.7368L13.3703 8.65291C13.7421 8.28835 14.3493 8.28835 14.7211 8.65291C15.093 9.01748 15.093 9.61282 14.7211 9.97739L9.53623 15.0612C7.35311 17.2018 3.81918 17.2018 1.63606 15.0612C-0.545354 12.9207 -0.545354 9.45563 1.63606 7.31506L7.91253 1.16092C9.49188 -0.386975 12.0502 -0.386975 13.6296 1.16092C15.2089 2.70882 15.2089 5.21797 13.6296 6.76654L7.626 12.6531C6.65042 13.6097 5.06765 13.6097 4.09207 12.6531C3.11615 11.6965 3.11615 10.1446 4.09207 9.18806L9.0041 4.37178C9.37591 4.00721 9.98309 4.00721 10.3549 4.37178C10.7267 4.73634 10.7267 5.33169 10.3549 5.69625L5.44288 10.5125C5.21433 10.7366 5.21433 11.1045 5.44288 11.3286C5.67142 11.5527 6.04665 11.5527 6.27519 11.3286L12.2788 5.44206C13.1111 4.62597 13.1111 3.30149 12.2788 2.4854Z" fill="#495464"/>
</svg>
