<svg width="53" height="42" viewBox="0 0 53 42" fill="none" xmlns="http://www.w3.org/2000/svg">
<path d="M45.3076 17.7C44.4887 17.7 43.587 18.3281 43.587 19.8281H46.9639C46.9639 18.3281 46.1082 17.7 45.3076 17.7ZM34.5052 17.9437C33.7507 17.9437 33.2814 18.2156 32.941 18.6L32.9594 23.55C33.2814 23.8969 33.7415 24.1781 34.5052 24.1781C35.7106 24.1781 36.5203 22.8375 36.5203 21.0469C36.5203 19.3031 35.6922 17.9344 34.5052 17.9437ZM48.5833 0H4.41667C1.9783 0 0 2.01562 0 4.5V37.5C0 39.9844 1.9783 42 4.41667 42H48.5833C51.0217 42 53 39.9844 53 37.5V4.5C53 2.01562 51.0217 0 48.5833 0ZM11.2441 23.3531C11.2441 25.7531 9.37622 27.1125 6.6526 27.1312C5.53004 27.1312 4.29705 26.9062 3.08247 26.3719V23.1937C4.18663 23.7937 5.57604 24.2531 6.66181 24.2531C7.38872 24.2531 7.91319 24.0562 7.91319 23.4375C7.91319 21.8438 2.94444 22.4438 2.94444 18.7594C2.94444 16.3969 4.71111 14.9906 7.36111 14.9906C8.44687 14.9906 9.52344 15.1594 10.6092 15.6V18.7313C9.61545 18.1875 8.35486 17.8781 7.36111 17.8781C6.67101 17.8781 6.24774 18.0844 6.24774 18.6C6.24774 20.1 11.2441 19.3875 11.2441 23.3531ZM17.5747 18.0469H15.0903V22.7812C15.0903 24.7406 17.1606 24.1313 17.5747 23.9625V26.6719C17.1422 26.9156 16.3509 27.1125 15.2835 27.1125C13.342 27.1125 11.8882 25.6594 11.8882 23.6906L11.9066 13.0125L15.0995 12.3187V15.2062H17.5747V18.0469ZM24.3837 18.2719C23.9696 18.1312 22.663 17.9344 21.8901 18.9656V26.8781H18.6236V15.2062H21.4484L21.6509 16.1906C22.4146 14.7562 23.942 15.0469 24.3745 15.2062H24.3837V18.2719ZM28.4415 26.8781H25.1566V15.2062H28.4415V26.8781ZM28.4415 13.4813L25.1566 14.1937V11.4844L28.4415 10.7719V13.4813ZM35.2597 27.1219C34.1188 27.1219 33.4194 26.625 32.9502 26.2781L32.941 30.0469L29.6745 30.75V15.2062H32.5545L32.7201 16.0312C33.171 15.6094 33.9991 14.9906 35.2781 14.9906C37.5693 14.9906 39.7316 17.1 39.7316 20.9719C39.7316 25.2 37.5969 27.1125 35.2597 27.1219ZM50.0187 22.2937H43.6238C43.771 23.85 44.8936 24.3094 46.1634 24.3094C47.4608 24.3094 48.4821 24.0281 49.3746 23.5687V26.25C48.4821 26.7469 47.3135 27.1125 45.7493 27.1125C42.5656 27.1125 40.3389 25.0781 40.3389 21.0656C40.3389 17.6719 42.2252 14.9813 45.3352 14.9813C48.4361 14.9813 50.0556 17.6719 50.0556 21.0844C50.0556 21.4125 50.028 22.1062 50.0187 22.2937Z" fill="#F4F4F2"/>
</svg>
