<svg width="53" height="42" viewBox="0 0 53 42" fill="none" xmlns="http://www.w3.org/2000/svg">
<path d="M44.4335 35.3719C44.4335 36.0094 44.0102 36.4688 43.403 36.4688C42.7773 36.4688 42.3724 35.9812 42.3724 35.3719C42.3724 34.7625 42.7773 34.275 43.403 34.275C44.0102 34.275 44.4335 34.7625 44.4335 35.3719ZM15.8356 34.275C15.1823 34.275 14.805 34.7625 14.805 35.3719C14.805 35.9812 15.1823 36.4688 15.8356 36.4688C16.4337 36.4688 16.8385 36.0094 16.8385 35.3719C16.8293 34.7625 16.4337 34.275 15.8356 34.275ZM26.6472 34.2469C26.1503 34.2469 25.8467 34.575 25.7731 35.0625H27.5306C27.4477 34.5281 27.1257 34.2469 26.6472 34.2469ZM36.5663 34.275C35.9406 34.275 35.5634 34.7625 35.5634 35.3719C35.5634 35.9812 35.9406 36.4688 36.5663 36.4688C37.192 36.4688 37.5969 36.0094 37.5969 35.3719C37.5969 34.7625 37.192 34.275 36.5663 34.275ZM46.3106 36.7219C46.3106 36.75 46.3382 36.7687 46.3382 36.825C46.3382 36.8531 46.3106 36.8719 46.3106 36.9281C46.283 36.9562 46.283 36.975 46.2646 37.0031C46.237 37.0312 46.2186 37.05 46.1634 37.05C46.1358 37.0781 46.1174 37.0781 46.0622 37.0781C46.0345 37.0781 46.0161 37.0781 45.9609 37.05C45.9333 37.05 45.9149 37.0219 45.8873 37.0031C45.8597 36.975 45.8413 36.9562 45.8413 36.9281C45.8137 36.8812 45.8137 36.8531 45.8137 36.825C45.8137 36.7781 45.8137 36.75 45.8413 36.7219C45.8413 36.675 45.8689 36.6469 45.8873 36.6188C45.9149 36.5906 45.9333 36.5906 45.9609 36.5719C46.0069 36.5438 46.0345 36.5437 46.0622 36.5437C46.1082 36.5437 46.1358 36.5438 46.1634 36.5719C46.2094 36.6 46.237 36.6 46.2646 36.6188C46.2922 36.6375 46.283 36.675 46.3106 36.7219ZM46.1082 36.8531C46.1542 36.8531 46.1542 36.825 46.1818 36.825C46.2094 36.7969 46.2094 36.7781 46.2094 36.75C46.2094 36.7219 46.2094 36.7031 46.1818 36.675C46.1542 36.675 46.1358 36.6469 46.0806 36.6469H45.9333V36.975H46.0069V36.8438H46.0345L46.1358 36.975H46.2094L46.1082 36.8531ZM53 4.5V37.5C53 39.9844 51.0217 42 48.5833 42H4.41667C1.9783 42 0 39.9844 0 37.5V4.5C0 2.01562 1.9783 0 4.41667 0H48.5833C51.0217 0 53 2.01562 53 4.5ZM5.88889 17.5875C5.88889 24.7594 11.603 30.5719 18.6328 30.5719C21.1356 30.5719 23.5924 29.8031 25.6719 28.4062C18.9641 22.8469 19.0101 12.3562 25.6719 6.79688C23.5924 5.39062 21.1356 4.63125 18.6328 4.63125C11.603 4.62188 5.88889 10.4438 5.88889 17.5875ZM26.5 27.7875C32.987 22.6312 32.9594 12.5813 26.5 7.39688C20.0406 12.5813 20.013 22.6406 26.5 27.7875ZM13.4064 34.9406C13.4064 34.125 12.8819 33.5906 12.0538 33.5625C11.6306 33.5625 11.1797 33.6937 10.876 34.1719C10.6552 33.7875 10.278 33.5625 9.75347 33.5625C9.40382 33.5625 9.05417 33.6937 8.77812 34.0687V33.6562H8.02361V37.0969H8.77812C8.77812 35.325 8.54809 34.2656 9.60625 34.2656C10.5448 34.2656 10.3608 35.2219 10.3608 37.0969H11.0877C11.0877 35.3813 10.8576 34.2656 11.9158 34.2656C12.8543 34.2656 12.6703 35.2031 12.6703 37.0969H13.4248V34.9406H13.4064ZM17.5378 33.6562H16.8109V34.0687C16.5625 33.7594 16.2128 33.5625 15.7344 33.5625C14.7866 33.5625 14.0597 34.3312 14.0597 35.3719C14.0597 36.4219 14.7866 37.1813 15.7344 37.1813C16.2128 37.1813 16.5625 37.0031 16.8109 36.675V37.1062H17.5378V33.6562ZM21.2644 36.0563C21.2644 34.65 19.1573 35.2875 19.1573 34.6312C19.1573 34.0969 20.2523 34.1812 20.8595 34.5281L21.1632 33.9187C20.2983 33.3469 18.3844 33.3563 18.3844 34.6875C18.3844 36.0281 20.4915 35.4656 20.4915 36.0938C20.4915 36.6844 19.2493 36.6375 18.5868 36.1687L18.2648 36.7594C19.2953 37.4719 21.2644 37.3219 21.2644 36.0563ZM24.5217 36.9281L24.3193 36.2906C23.9696 36.4875 23.1967 36.7031 23.1967 35.9062V34.35H24.4021V33.6562H23.1967V32.6062H22.4422V33.6562H21.7429V34.3406H22.4422V35.9062C22.4422 37.5563 24.034 37.2562 24.5217 36.9281ZM25.7455 35.6719H28.2759C28.2759 34.1531 27.595 33.5531 26.6748 33.5531C25.6995 33.5531 25.0002 34.2938 25.0002 35.3625C25.0002 37.2844 27.0797 37.6031 28.1102 36.6937L27.7606 36.1312C27.0429 36.7313 25.9571 36.675 25.7455 35.6719ZM31.1835 33.6562C30.7602 33.4688 30.1161 33.4875 29.7849 34.0687V33.6562H29.0304V37.0969H29.7849V35.1562C29.7849 34.0687 30.659 34.2094 30.9627 34.3688L31.1835 33.6562ZM32.1589 35.3719C32.1589 34.3031 33.2262 33.9562 34.0635 34.5844L34.4132 33.975C33.3458 33.1219 31.4043 33.5906 31.4043 35.3812C31.4043 37.2375 33.4655 37.6125 34.4132 36.7875L34.0635 36.1781C33.217 36.7875 32.1589 36.4219 32.1589 35.3719ZM38.2962 33.6562H37.5417V34.0687C36.778 33.0375 34.7905 33.6187 34.7905 35.3719C34.7905 37.1719 36.8516 37.6875 37.5417 36.675V37.1062H38.2962V33.6562ZM41.397 33.6562C41.1762 33.5438 40.3849 33.3844 39.9984 34.0687V33.6562H39.2715V37.0969H39.9984V35.1562C39.9984 34.125 40.8266 34.1906 41.1762 34.3688L41.397 33.6562ZM45.1052 32.2594H44.3783V34.0687C43.6238 33.0469 41.6271 33.5906 41.6271 35.3719C41.6271 37.1906 43.6974 37.6781 44.3783 36.675V37.1062H45.1052V32.2594ZM45.8045 25.2188V25.65H45.8781V25.2188H46.053V25.1438H45.6297V25.2188H45.8045ZM46.4118 36.825C46.4118 36.7781 46.4118 36.7219 46.3842 36.675C46.3566 36.6469 46.3382 36.6 46.3106 36.5719C46.283 36.5438 46.237 36.525 46.2094 36.4969C46.1634 36.4969 46.1082 36.4688 46.0622 36.4688C46.0345 36.4688 45.9885 36.4969 45.9333 36.4969C45.8873 36.525 45.8597 36.5438 45.8321 36.5719C45.7861 36.6 45.7585 36.6469 45.7585 36.675C45.7309 36.7219 45.7309 36.7781 45.7309 36.825C45.7309 36.8531 45.7309 36.9 45.7585 36.9563C45.7585 36.9844 45.7861 37.0312 45.8321 37.0594C45.8597 37.0875 45.8781 37.1063 45.9333 37.1344C45.9793 37.1625 46.0345 37.1625 46.0622 37.1625C46.1082 37.1625 46.1634 37.1625 46.2094 37.1344C46.237 37.1063 46.283 37.0875 46.3106 37.0594C46.3382 37.0312 46.3566 36.9844 46.3842 36.9563C46.4118 36.9 46.4118 36.8531 46.4118 36.825ZM46.7062 25.1344H46.5774L46.4302 25.4625L46.283 25.1344H46.1542V25.6406H46.2278V25.2562L46.375 25.5844H46.4762L46.605 25.2562V25.6406H46.7062V25.1344ZM47.1111 17.5875C47.1111 10.4438 41.397 4.62188 34.3672 4.62188C31.8644 4.62188 29.4076 5.39062 27.3281 6.7875C33.9623 12.3469 34.0635 22.8656 27.3281 28.3969C29.4076 29.8031 31.8828 30.5625 34.3672 30.5625C41.397 30.5719 47.1111 24.7594 47.1111 17.5875Z" fill="#F4F4F2"/>
</svg>
