<svg width="15" height="15" viewBox="0 0 15 15" fill="none" xmlns="http://www.w3.org/2000/svg">
<path d="M0 7.5C0 3.35742 3.35742 0 7.5 0C11.6426 0 15 3.35742 15 7.5C15 11.6426 11.6426 15 7.5 15C3.35742 15 0 11.6426 0 7.5ZM4.80762 9.53613C4.6377 9.33984 4.3418 9.31934 4.14551 9.48926C3.94922 9.65918 3.92871 9.95508 4.09863 10.1514C4.74902 10.9014 5.88574 11.7188 7.47363 11.7188C9.11426 11.7188 10.248 10.9014 10.9014 10.1514C11.0713 9.95508 11.0508 9.65918 10.8545 9.48926C10.6582 9.31934 10.3623 9.33984 10.1924 9.53613C9.66504 10.1426 8.77148 10.7812 7.47363 10.7812C6.22852 10.7812 5.33203 10.1426 4.80762 9.53613ZM5.16797 5.15625C4.64941 5.15625 4.23047 5.5752 4.23047 6.09375C4.23047 6.6123 4.64941 7.03125 5.16797 7.03125C5.68359 7.03125 6.10547 6.6123 6.10547 6.09375C6.10547 5.5752 5.68359 5.15625 5.16797 5.15625ZM9.85547 7.03125C10.3711 7.03125 10.793 6.6123 10.793 6.09375C10.793 5.5752 10.3711 5.15625 9.85547 5.15625C9.33691 5.15625 8.91797 5.5752 8.91797 6.09375C8.91797 6.6123 9.33691 7.03125 9.85547 7.03125Z" fill="#495464"/>
</svg>
