<svg width="56" height="56" viewBox="0 0 56 56" fill="none" xmlns="http://www.w3.org/2000/svg">
<path d="M50 0H6C4.4087 0 2.88258 0.632141 1.75736 1.75736C0.632141 2.88258 0 4.4087 0 6L0 50C0 51.5913 0.632141 53.1174 1.75736 54.2426C2.88258 55.3679 4.4087 56 6 56H23.1562V36.9613H15.2812V28H23.1562V21.17C23.1562 13.4012 27.7813 9.11 34.865 9.11C38.2575 9.11 41.805 9.715 41.805 9.715V17.34H37.8963C34.045 17.34 32.8438 19.73 32.8438 22.1812V28H41.4412L40.0662 36.9613H32.8438V56H50C51.5913 56 53.1174 55.3679 54.2426 54.2426C55.3679 53.1174 56 51.5913 56 50V6C56 4.4087 55.3679 2.88258 54.2426 1.75736C53.1174 0.632141 51.5913 0 50 0Z" fill="#F4F4F2"/>
</svg>
