<svg width="55" height="56" viewBox="0 0 55 56" fill="none" xmlns="http://www.w3.org/2000/svg">
<path d="M27.5 21.3325C26.2049 21.333 24.9391 21.7245 23.8626 22.4574C22.786 23.1903 21.947 24.2318 21.4518 25.4502C20.9565 26.6686 20.8272 28.0091 21.0801 29.3023C21.3331 30.5955 21.957 31.7833 22.8729 32.7155C23.7888 33.6477 24.9556 34.2825 26.2258 34.5396C27.496 34.7966 28.8126 34.6645 30.009 34.1597C31.2054 33.655 32.228 32.8004 32.9475 31.704C33.6669 30.6076 34.0509 29.3186 34.0509 28C34.0496 26.2316 33.3589 24.5361 32.1306 23.2859C30.9023 22.0358 29.2368 21.3332 27.5 21.3325ZM42.8104 16.2075C42.477 15.3473 41.9736 14.566 41.3314 13.9121C40.6892 13.2582 39.9218 12.7457 39.077 12.4062C36.4989 11.37 30.3605 11.6025 27.5 11.6025C24.6395 11.6025 18.5073 11.3612 15.9218 12.4062C15.0769 12.7457 14.3096 13.2582 13.6674 13.9121C13.0252 14.566 12.5218 15.3473 12.1884 16.2075C11.1719 18.8325 11.399 25.0888 11.399 27.9988C11.399 30.9088 11.1719 37.1575 12.1933 39.7912C12.5267 40.6514 13.0301 41.4327 13.6723 42.0866C14.3145 42.7405 15.0818 43.2531 15.9267 43.5925C18.5048 44.6287 24.6432 44.3963 27.5049 44.3963C30.3666 44.3963 36.4964 44.6375 39.0819 43.5925C39.9268 43.2531 40.6941 42.7405 41.3363 42.0866C41.9785 41.4327 42.4819 40.6514 42.8153 39.7912C43.8404 37.1662 43.6047 30.91 43.6047 28C43.6047 25.09 43.8404 18.8425 42.8153 16.2087L42.8104 16.2075ZM27.5 38.25C25.5089 38.25 23.5626 37.6488 21.9071 36.5226C20.2516 35.3963 18.9613 33.7954 18.1993 31.9225C17.4374 30.0496 17.238 27.9886 17.6265 26.0003C18.0149 24.012 18.9737 22.1856 20.3816 20.7522C21.7895 19.3187 23.5832 18.3424 25.536 17.947C27.4888 17.5515 29.513 17.7544 31.3525 18.5302C33.192 19.306 34.7642 20.6198 35.8704 22.3054C36.9765 23.991 37.567 25.9727 37.567 28C37.5686 29.3465 37.3093 30.6801 36.804 31.9244C36.2986 33.1688 35.5571 34.2994 34.622 35.2515C33.6869 36.2036 32.5765 36.9586 31.3544 37.4731C30.1323 37.9876 28.8225 38.2516 27.5 38.25ZM37.9819 19.7125C37.5171 19.7127 37.0627 19.5726 36.6761 19.3099C36.2895 19.0472 35.9882 18.6736 35.8101 18.2364C35.6321 17.7993 35.5854 17.3182 35.6759 16.854C35.7664 16.3898 35.9901 15.9634 36.3187 15.6287C36.6473 15.294 37.066 15.066 37.5218 14.9736C37.9777 14.8811 38.4502 14.9285 38.8796 15.1095C39.3091 15.2905 39.6761 15.5972 39.9344 15.9907C40.1926 16.3841 40.3305 16.8468 40.3305 17.32C40.3318 17.6343 40.2721 17.9457 40.1549 18.2364C40.0377 18.5272 39.8653 18.7915 39.6476 19.0142C39.4298 19.237 39.1711 19.4138 38.8861 19.5345C38.6011 19.6551 38.2955 19.7173 37.9868 19.7175L37.9819 19.7125ZM49.1071 0H5.89286C4.32997 0 2.8311 0.632141 1.72598 1.75736C0.620853 2.88258 0 4.4087 0 6L0 50C0 51.5913 0.620853 53.1174 1.72598 54.2426C2.8311 55.3679 4.32997 56 5.89286 56H49.1071C50.67 56 52.1689 55.3679 53.274 54.2426C54.3791 53.1174 55 51.5913 55 50V6C55 4.4087 54.3791 2.88258 53.274 1.75736C52.1689 0.632141 50.67 0 49.1071 0ZM47.0054 36.25C46.847 39.4538 46.1288 42.2925 43.8318 44.625C41.5348 46.9575 38.7492 47.7038 35.6064 47.8563C32.3641 48.0425 22.6433 48.0425 19.401 47.8563C16.2545 47.695 13.4762 46.9625 11.1756 44.625C8.87489 42.2875 8.15179 39.4475 8.00201 36.25C7.81909 32.9475 7.81909 23.0487 8.00201 19.75C8.16038 16.5462 8.86998 13.7075 11.1756 11.375C13.4811 9.0425 16.2667 8.305 19.401 8.1525C22.6433 7.96625 32.3641 7.96625 35.6064 8.1525C38.7529 8.31375 41.5397 9.04625 43.8318 11.3837C46.1239 13.7213 46.8556 16.5612 47.0054 19.765C47.1883 23.055 47.1883 32.945 47.0054 36.25Z" fill="#F4F4F2"/>
</svg>
