<svg width="22" height="30" viewBox="0 0 22 30" fill="none" xmlns="http://www.w3.org/2000/svg">
<path d="M0.800365 0.125817C1.28849 -0.0985449 1.86198 -0.0184141 2.2699 0.331042L4.58333 2.31409L6.89792 0.331042C7.41354 -0.110347 8.16979 -0.110347 8.68542 0.331042L11 2.31409L13.3146 0.331042C13.8302 -0.110347 14.5865 -0.110347 15.1021 0.331042L17.4167 2.31409L19.7313 0.331042C20.138 -0.0184141 20.7109 -0.0985449 21.1979 0.125817C21.6849 0.350235 22 0.838205 22 1.37505V27.9592C22 28.4978 21.6849 28.9848 21.1979 29.2082C20.7109 29.4317 20.138 29.3515 19.7313 29.002L17.4167 27.0196L15.1021 29.002C14.5865 29.4432 13.8302 29.4432 13.3146 29.002L11 27.0196L8.68542 29.002C8.16979 29.4432 7.41354 29.4432 6.89792 29.002L4.58333 27.0196L2.2699 29.002C1.86198 29.3515 1.28849 29.4317 0.800365 29.2082C0.312583 28.9848 0 28.4978 0 27.9592V1.37505C0 0.838205 0.312583 0.350178 0.800365 0.125817ZM5.5 8.25027C4.99354 8.25027 4.58333 8.66278 4.58333 9.16697C4.58333 9.67115 4.99354 10.0837 5.5 10.0837H16.5C17.0042 10.0837 17.4167 9.67115 17.4167 9.16697C17.4167 8.66278 17.0042 8.25027 16.5 8.25027H5.5ZM5.5 21.084H16.5C17.0042 21.084 17.4167 20.6715 17.4167 20.1673C17.4167 19.6631 17.0042 19.2506 16.5 19.2506H5.5C4.99354 19.2506 4.58333 19.6631 4.58333 20.1673C4.58333 20.6715 4.99354 21.084 5.5 21.084ZM5.5 13.7505C4.99354 13.7505 4.58333 14.163 4.58333 14.6671C4.58333 15.1713 4.99354 15.5838 5.5 15.5838H16.5C17.0042 15.5838 17.4167 15.1713 17.4167 14.6671C17.4167 14.163 17.0042 13.7505 16.5 13.7505H5.5Z" fill="#495464"/>
</svg>
