<svg width="24" height="24" viewBox="0 0 24 24" fill="none" xmlns="http://www.w3.org/2000/svg">
<path d="M14.9675 11.56C15.0601 12.1841 14.9535 12.8216 14.6629 13.3817C14.3722 13.9418 13.9124 14.396 13.3488 14.6797C12.7851 14.9634 12.1464 15.0621 11.5234 14.9619C10.9004 14.8616 10.3249 14.5675 9.87868 14.1213C9.43249 13.6751 9.13835 13.0996 9.0381 12.4766C8.93786 11.8536 9.0366 11.2149 9.3203 10.6512C9.60399 10.0876 10.0582 9.62776 10.6183 9.33713C11.1784 9.04651 11.8159 8.93989 12.4401 9.03245C13.0767 9.12687 13.6662 9.42355 14.1213 9.87868C14.5765 10.3338 14.8731 10.9233 14.9675 11.56Z" stroke="white" stroke-width="2" stroke-linecap="round" stroke-linejoin="round"/>
<path d="M16 8H16.01" stroke="white" stroke-width="2" stroke-linecap="round" stroke-linejoin="round"/>
<path d="M15.5 5H8.5C6.567 5 5 6.567 5 8.5V15.5C5 17.433 6.567 19 8.5 19H15.5C17.433 19 19 17.433 19 15.5V8.5C19 6.567 17.433 5 15.5 5Z" stroke="white" stroke-width="2" stroke-linecap="round" stroke-linejoin="round"/>
</svg>
