<svg width="55" height="56" viewBox="0 0 55 56" fill="none" xmlns="http://www.w3.org/2000/svg">
<path d="M49.1071 0H5.89286C2.63951 0 0 2.6875 0 6V50C0 53.3125 2.63951 56 5.89286 56H49.1071C52.3605 56 55 53.3125 55 50V6C55 2.6875 52.3605 0 49.1071 0ZM43.1038 19.85C43.1283 20.2 43.1283 20.5625 43.1283 20.9125C43.1283 31.75 35.0257 44.2375 20.2199 44.2375C15.6529 44.2375 11.4174 42.8875 7.85714 40.5625C8.50781 40.6375 9.13393 40.6625 9.79688 40.6625C13.5658 40.6625 17.0279 39.3625 19.7902 37.1625C16.2545 37.0875 13.2835 34.725 12.2645 31.475C13.5045 31.6625 14.6217 31.6625 15.8984 31.325C12.2154 30.5625 9.45312 27.2625 9.45312 23.275V23.175C10.5212 23.7875 11.7734 24.1625 13.0871 24.2125C11.9827 23.4645 11.0773 22.4498 10.4518 21.2589C9.82629 20.068 9.50006 18.738 9.50223 17.3875C9.50223 15.8625 9.89509 14.4625 10.5949 13.25C14.5603 18.225 20.5145 21.475 27.1931 21.825C26.0513 16.2625 30.1395 11.75 35.0502 11.75C37.3705 11.75 39.4576 12.7375 40.9308 14.3375C42.7478 13.9875 44.4911 13.3 46.0379 12.3625C45.4364 14.2625 44.1719 15.8625 42.5022 16.875C44.1228 16.7 45.6942 16.2375 47.1429 15.6C46.0502 17.2375 44.6752 18.6875 43.1038 19.85Z" fill="#F4F4F2"/>
</svg>
