<svg width="24" height="24" viewBox="0 0 24 24" fill="none" xmlns="http://www.w3.org/2000/svg">
<path d="M18.686 8.56533C18.605 8.25835 18.4401 7.97708 18.2078 7.74994C17.9756 7.52279 17.6843 7.35782 17.3633 7.27167C16.1907 7 11.5 7 11.5 7C11.5 7 6.80933 7 5.63667 7.29754C5.31572 7.38369 5.02441 7.54867 4.79218 7.77581C4.55994 8.00296 4.395 8.28422 4.31401 8.5912C4.09939 9.72028 3.99441 10.8657 4.00039 12.0129C3.99274 13.1689 4.09773 14.323 4.31401 15.4605C4.4033 15.758 4.57193 16.0286 4.80363 16.2461C5.03532 16.4637 5.32224 16.6208 5.63667 16.7025C6.80933 17 11.5 17 11.5 17C11.5 17 16.1907 17 17.3633 16.7025C17.6843 16.6163 17.9756 16.4513 18.2078 16.2242C18.4401 15.997 18.605 15.7158 18.686 15.4088C18.899 14.2882 19.0039 13.1516 18.9996 12.0129C19.0073 10.857 18.9023 9.70291 18.686 8.56533Z" fill="white" stroke="white" stroke-linecap="round" stroke-linejoin="round"/>
<path d="M11 14L14 11.5L11 9V14Z" fill="#A39161" stroke="#A39161" stroke-linecap="round" stroke-linejoin="round"/>
</svg>
